<svg xmlns="http://www.w3.org/2000/svg" viewBox="0 0 820 420" font-family="'Helvetica Neue', 'Arial', sans-serif">
  <defs>
    <style>
      .bg { fill: #fff; }
      .fig-title { font-size: 16px; fill: #111; font-weight: 700; }
      .section-title { font-size: 13px; fill: #333; font-weight: 700; }
      .sub-label { font-size: 10.5px; fill: #555; font-weight: 600; }
      .desc { font-size: 10px; fill: #777; }
      .gemm-fill { fill: #4A7FC7; }
      .comm-fill { fill: #E8963A; }
      .barrier-fill { fill: #ccc; }
      .fused-fill { fill: #5BA87B; }
      .box-stroke { stroke: #444; stroke-width: 1; fill: none; rx: 3; }
      .arrow { stroke: #555; stroke-width: 1.2; fill: none; marker-end: url(#ah2); }
      .time-arrow { stroke: #999; stroke-width: 1; fill: none; marker-end: url(#ah3); }
      .dashed { stroke-dasharray: 5,3; }
      .legend-text { font-size: 10px; fill: #444; }
    </style>
    <marker id="ah2" markerWidth="8" markerHeight="6" refX="7" refY="3" orient="auto">
      <polygon points="0 0, 8 3, 0 6" fill="#555"/>
    </marker>
    <marker id="ah3" markerWidth="6" markerHeight="5" refX="5" refY="2.5" orient="auto">
      <polygon points="0 0, 6 2.5, 0 5" fill="#999"/>
    </marker>
  </defs>

  <rect class="bg" width="820" height="420"/>

  <!-- Figure title -->
  <text class="fig-title" x="410" y="28" text-anchor="middle">Tile-Native Compute-Communication Overlap</text>

  <!-- Divider line -->
  <line x1="400" y1="44" x2="400" y2="390" stroke="#ddd" stroke-width="1" stroke-dasharray="6,4"/>

  <!-- ========== LEFT: Traditional Approach ========== -->
  <text class="section-title" x="200" y="58" text-anchor="middle">Traditional Approach</text>
  <text class="desc" x="200" y="74" text-anchor="middle">Sequential kernel launches, opaque runtime calls</text>

  <!-- Time arrow -->
  <line class="time-arrow" x1="52" y1="100" x2="52" y2="370"/>
  <text class="desc" x="46" y="240" text-anchor="middle" transform="rotate(-90, 46, 240)">time</text>

  <!-- GPU 0 column -->
  <text class="sub-label" x="140" y="96">GPU 0</text>
  <!-- GEMM block -->
  <rect class="gemm-fill" x="80" y="105" width="120" height="100" rx="3" opacity="0.85"/>
  <text x="140" y="160" text-anchor="middle" fill="#fff" font-size="12" font-weight="600">GEMM</text>
  <text x="140" y="176" text-anchor="middle" fill="rgba(255,255,255,0.8)" font-size="9">full matrix</text>

  <!-- Barrier -->
  <rect class="barrier-fill" x="80" y="210" width="120" height="24" rx="2"/>
  <text x="140" y="226" text-anchor="middle" fill="#666" font-size="10">barrier</text>

  <!-- Scatter -->
  <rect class="comm-fill" x="80" y="239" width="120" height="70" rx="3" opacity="0.85"/>
  <text x="140" y="278" text-anchor="middle" fill="#fff" font-size="12" font-weight="600">Scatter</text>

  <!-- GPU 1 column -->
  <text class="sub-label" x="280" y="96">GPU 1</text>
  <rect class="gemm-fill" x="220" y="105" width="120" height="100" rx="3" opacity="0.85"/>
  <text x="280" y="160" text-anchor="middle" fill="#fff" font-size="12" font-weight="600">GEMM</text>
  <text x="280" y="176" text-anchor="middle" fill="rgba(255,255,255,0.8)" font-size="9">full matrix</text>
  <rect class="barrier-fill" x="220" y="210" width="120" height="24" rx="2"/>
  <text x="280" y="226" text-anchor="middle" fill="#666" font-size="10">barrier</text>
  <rect class="comm-fill" x="220" y="239" width="120" height="70" rx="3" opacity="0.85"/>
  <text x="280" y="278" text-anchor="middle" fill="#fff" font-size="12" font-weight="600">Scatter</text>

  <!-- Arrows between GPUs (traditional) -->
  <line class="arrow" x1="200" y1="274" x2="218" y2="274"/>
  <line class="arrow" x1="218" y1="262" x2="200" y2="262"/>

  <!-- Idle annotation -->
  <rect x="80" y="314" width="260" height="40" rx="2" fill="#f5f5f5" stroke="#ddd" stroke-width="0.8"/>
  <text x="210" y="330" text-anchor="middle" fill="#888" font-size="10">Communication cannot begin</text>
  <text x="210" y="344" text-anchor="middle" fill="#888" font-size="10">until all compute tiles finish</text>

  <!-- ========== RIGHT: TileCCL Approach ========== -->
  <text class="section-title" x="620" y="58" text-anchor="middle">TileCCL: Tile-Native Overlap</text>
  <text class="desc" x="620" y="74" text-anchor="middle">Compute and communicate tile-by-tile within one kernel</text>

  <!-- Time arrow -->
  <line class="time-arrow" x1="452" y1="100" x2="452" y2="370"/>
  <text class="desc" x="446" y="240" text-anchor="middle" transform="rotate(-90, 446, 240)">time</text>

  <!-- GPU 0 -->
  <text class="sub-label" x="540" y="96">GPU 0</text>
  <!-- Fused kernel outline -->
  <rect x="480" y="105" width="120" height="240" rx="3" fill="none" stroke="#666" stroke-width="1.2"/>

  <!-- Interleaved tiles -->
  <rect class="gemm-fill" x="484" y="109" width="112" height="28" rx="2" opacity="0.8"/>
  <text x="540" y="127" text-anchor="middle" fill="#fff" font-size="9.5" font-weight="500">compute tile 0</text>
  <rect class="comm-fill" x="484" y="141" width="112" height="20" rx="2" opacity="0.8"/>
  <text x="540" y="155" text-anchor="middle" fill="#fff" font-size="9" font-weight="500">scatter tile 0</text>

  <rect class="gemm-fill" x="484" y="165" width="112" height="28" rx="2" opacity="0.8"/>
  <text x="540" y="183" text-anchor="middle" fill="#fff" font-size="9.5" font-weight="500">compute tile 1</text>
  <rect class="comm-fill" x="484" y="197" width="112" height="20" rx="2" opacity="0.8"/>
  <text x="540" y="211" text-anchor="middle" fill="#fff" font-size="9" font-weight="500">scatter tile 1</text>

  <rect class="gemm-fill" x="484" y="221" width="112" height="28" rx="2" opacity="0.8"/>
  <text x="540" y="239" text-anchor="middle" fill="#fff" font-size="9.5" font-weight="500">compute tile 2</text>
  <rect class="comm-fill" x="484" y="253" width="112" height="20" rx="2" opacity="0.8"/>
  <text x="540" y="267" text-anchor="middle" fill="#fff" font-size="9" font-weight="500">scatter tile 2</text>

  <rect class="gemm-fill" x="484" y="277" width="112" height="28" rx="2" opacity="0.75"/>
  <text x="540" y="295" text-anchor="middle" fill="#fff" font-size="9.5" font-weight="500">compute tile 3</text>
  <rect class="comm-fill" x="484" y="309" width="112" height="20" rx="2" opacity="0.75"/>
  <text x="540" y="323" text-anchor="middle" fill="#fff" font-size="9" font-weight="500">scatter tile 3</text>

  <!-- GPU 1 -->
  <text class="sub-label" x="680" y="96">GPU 1</text>
  <rect x="620" y="105" width="120" height="240" rx="3" fill="none" stroke="#666" stroke-width="1.2"/>

  <rect class="gemm-fill" x="624" y="109" width="112" height="28" rx="2" opacity="0.8"/>
  <text x="680" y="127" text-anchor="middle" fill="#fff" font-size="9.5" font-weight="500">compute tile 0</text>
  <rect class="comm-fill" x="624" y="141" width="112" height="20" rx="2" opacity="0.8"/>
  <text x="680" y="155" text-anchor="middle" fill="#fff" font-size="9" font-weight="500">scatter tile 0</text>

  <rect class="gemm-fill" x="624" y="165" width="112" height="28" rx="2" opacity="0.8"/>
  <text x="680" y="183" text-anchor="middle" fill="#fff" font-size="9.5" font-weight="500">compute tile 1</text>
  <rect class="comm-fill" x="624" y="197" width="112" height="20" rx="2" opacity="0.8"/>
  <text x="680" y="211" text-anchor="middle" fill="#fff" font-size="9" font-weight="500">scatter tile 1</text>

  <rect class="gemm-fill" x="624" y="221" width="112" height="28" rx="2" opacity="0.8"/>
  <text x="680" y="239" text-anchor="middle" fill="#fff" font-size="9.5" font-weight="500">compute tile 2</text>
  <rect class="comm-fill" x="624" y="253" width="112" height="20" rx="2" opacity="0.8"/>
  <text x="680" y="267" text-anchor="middle" fill="#fff" font-size="9" font-weight="500">scatter tile 2</text>

  <rect class="gemm-fill" x="624" y="277" width="112" height="28" rx="2" opacity="0.75"/>
  <text x="680" y="295" text-anchor="middle" fill="#fff" font-size="9.5" font-weight="500">compute tile 3</text>
  <rect class="comm-fill" x="624" y="309" width="112" height="20" rx="2" opacity="0.75"/>
  <text x="680" y="323" text-anchor="middle" fill="#fff" font-size="9" font-weight="500">scatter tile 3</text>

  <!-- Cross-GPU arrows (TileCCL side) — tile-by-tile -->
  <line class="arrow" x1="596" y1="151" x2="622" y2="151" stroke="#E8963A" stroke-width="1"/>
  <line class="arrow" x1="622" y1="207" x2="596" y2="207" stroke="#E8963A" stroke-width="1"/>

  <!-- TileCCL annotation -->
  <rect x="480" y="352" width="260" height="40" rx="2" fill="#f0f7f3" stroke="#5BA87B" stroke-width="0.8"/>
  <text x="610" y="368" text-anchor="middle" fill="#3a7a55" font-size="10" font-weight="600">Communication begins as soon as</text>
  <text x="610" y="382" text-anchor="middle" fill="#3a7a55" font-size="10" font-weight="600">each tile is produced</text>

  <!-- Legend -->
  <rect class="gemm-fill" x="200" y="380" width="14" height="10" rx="2" opacity="0.85"/>
  <text class="legend-text" x="218" y="389">Compute</text>
  <rect class="comm-fill" x="280" y="380" width="14" height="10" rx="2" opacity="0.85"/>
  <text class="legend-text" x="298" y="389">Communication</text>
</svg>
