<svg xmlns="http://www.w3.org/2000/svg" viewBox="0 0 1000 660" font-family="'Helvetica Neue', 'Arial', sans-serif">
  <defs>
    <linearGradient id="topGrad" x1="0" x2="1" y1="0" y2="1">
      <stop offset="0" stop-color="#F8FAFC"/>
      <stop offset="1" stop-color="#EEF2F7"/>
    </linearGradient>
    <linearGradient id="controlGrad" x1="0" x2="1" y1="0" y2="1">
      <stop offset="0" stop-color="#FFFDF8"/>
      <stop offset="1" stop-color="#F8F3E8"/>
    </linearGradient>
    <linearGradient id="dataGrad" x1="0" x2="1" y1="0" y2="1">
      <stop offset="0" stop-color="#F7FBFF"/>
      <stop offset="1" stop-color="#EEF6FF"/>
    </linearGradient>
    <linearGradient id="substrateGrad" x1="0" x2="1" y1="0" y2="1">
      <stop offset="0" stop-color="#F3FBF6"/>
      <stop offset="1" stop-color="#EAF6EF"/>
    </linearGradient>
    <marker id="arrow" markerWidth="8" markerHeight="8" refX="7" refY="4" orient="auto" markerUnits="strokeWidth">
      <path d="M1,1 L7,4 L1,7" fill="none" stroke="#52677D" stroke-width="1.6" stroke-linecap="round" stroke-linejoin="round"/>
    </marker>
    <style>
      .small-cap { font-size: 13px; font-weight: 900; letter-spacing: 1.7px; fill: #64748B; }
      .title { font-size: 22px; font-weight: 800; fill: #1F2937; }
      .subtitle { font-size: 13px; fill: #64748B; }
      .panel-title { font-size: 18px; font-weight: 800; fill: #1F2937; }
      .panel-note { font-size: 12px; fill: #64748B; }
      .card-title { font-size: 15px; font-weight: 800; fill: #263238; }
      .card-note { font-size: 12.4px; fill: #687385; }
      .micro { font-size: 10.5px; fill: #7B8794; }
    </style>
  </defs>

  <rect width="1000" height="660" fill="#FFFFFF"/>

  <!-- Programming interface -->
  <rect x="80" y="38" width="840" height="92" rx="18" fill="url(#topGrad)" stroke="#CBD5E1" stroke-width="1.2"/>
  <text x="500" y="72" text-anchor="middle" class="small-cap">FRONTEND INPUT</text>
  <text x="500" y="104" text-anchor="middle" class="subtitle">Triton operator definitions / collective invocations / fused compute-communication invocations</text>

  <path d="M496 136 L504 136 L504 156 L512 156 L500 168 L488 156 L496 156 Z" fill="#D8E0E8"/>

  <!-- Middle split: control plane and data plane -->
  <rect x="62" y="174" width="396" height="282" rx="18" fill="url(#controlGrad)" stroke="#D8C59B" stroke-width="1.2"/>
  <text x="260" y="211" text-anchor="middle" class="small-cap" fill="#7A5E25">CONTROL PLANE</text>

  <rect x="92" y="238" width="336" height="58" rx="11" fill="#FFFFFF" stroke="#E4D6B8"/>
  <text x="120" y="266" class="card-title">Communication model</text>
  <text x="120" y="284" class="card-note">contracts / tile metadata / topology</text>

  <rect x="92" y="312" width="336" height="58" rx="11" fill="#FFFFFF" stroke="#E4D6B8"/>
  <text x="120" y="340" class="card-title">Runtime control</text>
  <text x="120" y="358" class="card-note">request submission / launch / progress</text>

  <rect x="92" y="386" width="336" height="58" rx="11" fill="#FFFFFF" stroke="#E4D6B8"/>
  <text x="120" y="414" class="card-title">Scheduling policy</text>
  <text x="120" y="432" class="card-note">granularity / topology / overlap</text>

  <rect x="542" y="174" width="396" height="282" rx="18" fill="url(#dataGrad)" stroke="#B7CBE3" stroke-width="1.2"/>
  <text x="740" y="211" text-anchor="middle" class="small-cap">DATA PLANE</text>

  <rect x="572" y="238" width="336" height="58" rx="11" fill="#FFFFFF" stroke="#D6DDE6"/>
  <text x="600" y="266" class="card-title">Memory semantics</text>
  <text x="600" y="284" font-size="11.4" fill="#687385">tile_remote_load/store / tile_put/get</text>

  <rect x="572" y="312" width="336" height="58" rx="11" fill="#FFFFFF" stroke="#D6DDE6"/>
  <text x="600" y="340" class="card-title">Synchronization semantics</text>
  <text x="600" y="358" font-size="11.4" fill="#687385">tile_signal / tile_wait / atomics</text>

  <rect x="572" y="386" width="336" height="58" rx="11" fill="#FFFFFF" stroke="#D6DDE6"/>
  <text x="600" y="414" class="card-title">Collective execution</text>
  <text x="600" y="432" font-size="11.4" fill="#687385">tile_allreduce / tile_allgather / tile_reduce_scatter</text>

  <!-- Cross-plane relationship -->
  <path d="M458 312 L528 312 L528 305 L546 316 L528 327 L528 320 L458 320 Z" fill="#D8E0E8"/>
  <line x1="542" y1="380" x2="458" y2="380" stroke="#8CA0B3" stroke-width="1.25" stroke-linecap="round" stroke-dasharray="5,5" marker-end="url(#arrow)"/>

  <path d="M496 460 L504 460 L504 481 L512 481 L500 493 L488 481 L496 481 Z" fill="#D8E0E8"/>

  <!-- Substrate -->
  <rect x="80" y="496" width="840" height="70" rx="16" fill="url(#substrateGrad)" stroke="#A7CDB8" stroke-width="1.2"/>
  <text x="500" y="524" text-anchor="middle" font-size="13px" font-weight="900" letter-spacing="1.7px" fill="#4D9B6C">COMMUNICATION RUNTIME AND MEMORY SUBSTRATE</text>
  <text x="500" y="548" text-anchor="middle" font-size="14px" font-weight="650" fill="#334155">memory registration / address translation / transport binding</text>

  <path d="M496 570 L504 570 L504 585 L512 585 L500 597 L488 585 L496 585 Z" fill="#D8E0E8"/>

  <!-- Hardware -->
  <rect x="120" y="602" width="760" height="42" rx="12" fill="#F1F5F9" stroke="#CBD5E1" stroke-width="1"/>
  <text x="500" y="618" text-anchor="middle" font-size="12px" font-weight="900" letter-spacing="1.5px" fill="#64748B">HARDWARE INTERCONNECT</text>
  <text x="500" y="635" text-anchor="middle" font-size="12px" font-weight="700" fill="#64748B">NVLink / xGMI / PCIe peer access</text>
</svg>
